<?xml version="1.0" encoding="utf-8"?>
<!-- Generator: Adobe Illustrator 15.0.0, SVG Export Plug-In . SVG Version: 6.00 Build 0)  -->
<!DOCTYPE svg PUBLIC "-//W3C//DTD SVG 1.1//EN" "http://www.w3.org/Graphics/SVG/1.1/DTD/svg11.dtd">
<svg xmlns:xlink="http://www.w3.org/1999/xlink" version="1.1" id="Calque_1" xmlns="http://www.w3.org/2000/svg" x="0px" y="0px"
	 width="1024px" height="1024px" viewBox="0 0 1024 1024" enable-background="new 0 0 1024 1024" xml:space="preserve">
<linearGradient id="SVGID_1_" gradientUnits="userSpaceOnUse" x1="140.0825" y1="652.084" x2="1164.082" y2="652.084" gradientTransform="matrix(0 1 -1 0 1164.084 -140.0825)">
	<stop  offset="0" style="stop-color:#FDE62C"/>
	<stop  offset="1" style="stop-color:#DB881F"/>
</linearGradient>
<rect fill="url(#SVGID_1_)" width="1024" height="1024"/>
<g>
	<path fill="#FFFFFF" d="M479.589,108.503c-13.32,4.245-20.606,18.456-16.421,31.704c1.322,4.196,3.695,7.94,6.948,10.898
		l100.977,100.977c7.301,11.892,22.879,15.587,34.71,8.285c11.878-7.341,15.571-22.878,8.285-34.76
		c-2.069-3.351-4.933-6.162-8.285-8.235L504.826,116.405c-5.626-6.113-13.91-9.081-22.083-7.902c-1.085-0.088-2.171-0.088-3.202,0
		H479.589z M681.539,108.503c-10.796,3.558-17.944,13.916-17.354,25.256v50.484c0,13.955,11.285,25.247,25.235,25.247
		c13.966,0,25.252-11.292,25.252-25.247V133.76c0.24-13.955-10.858-25.443-24.81-25.689c-1.715-0.058-3.493,0.138-5.169,0.433
		c-1.086-0.088-2.173-0.088-3.204,0H681.539z M883.487,108.503c-3.743,1.789-7.002,4.541-9.469,7.902L773.042,217.373
		c-11.882,7.302-15.577,22.878-8.285,34.709c7.353,11.892,22.879,15.587,34.761,8.285c3.352-2.063,6.167-4.924,8.234-8.285
		l100.972-100.977c9.774-9.955,9.677-25.935-0.289-35.693c-5.726-5.622-13.847-8.236-21.793-6.909c-1.085-0.088-2.172-0.088-3.203,0
		H883.487z M664.185,261.556l-99.41,99.395l99.41,99.394l99.384-99.394L664.185,261.556z M429.091,310.468
		c-13.9,2.171-23.463,15.232-21.291,29.177c2.167,13.916,15.237,23.477,29.182,21.306l0,0h50.488
		c13.95,0,25.237-11.292,25.237-25.237c0-13.956-11.287-25.247-25.237-25.247h-50.488c-1.572-0.148-3.149-0.148-4.741,0
		c-1.086-0.108-2.167-0.108-3.204,0H429.091z M832.999,310.468c-13.91,2.171-23.468,15.232-21.302,29.177
		c2.167,13.916,15.238,23.477,29.188,21.306l0,0h50.484c13.965,0,25.252-11.292,25.252-25.237c0-13.956-11.287-25.247-25.252-25.247
		h-50.484c-1.576-0.148-3.153-0.148-4.731,0c-1.085-0.108-2.171-0.108-3.203,0H832.999z M782.517,411.444
		c-13.322,4.235-20.61,18.437-16.423,31.704c1.336,4.187,3.696,7.94,6.948,10.889l100.977,100.986
		c7.303,11.871,22.879,15.565,34.705,8.275c11.897-7.353,15.592-22.868,8.29-34.771c-2.069-3.341-4.933-6.152-8.29-8.235
		L807.752,419.326c-5.611-6.112-13.9-9.071-22.087-7.881c-1.085-0.099-2.167-0.099-3.203,0H782.517z M511.131,414.589
		L107.232,816.963L208.209,917.94L610.53,514.042L511.131,414.589z M681.539,512.471c-10.796,3.538-17.944,13.836-17.354,25.237
		V588.2c0,13.956,11.285,25.237,25.235,25.237c13.966,0,25.252-11.281,25.252-25.237v-50.492
		c0.24-13.956-10.858-25.444-24.81-25.689c-1.715,0-3.493,0.108-5.169,0.452c-1.086-0.059-2.173-0.059-3.204,0H681.539z"/>
</g>
</svg>
